# xmcd CD database file
#
# Track frame offsets:
#	150
#	15774
#	32785
#	47951
#	58609
#	69667
#	86459
#	98875
#	110132
#	120081
#	133465
#
# Disc length: 2038 seconds
#
# Revision: 1
# Processed by: cddbd v1.4PL0 Copyright (c) Steve Scherf et al.
# Submitted via: CDex 1.50
#
DISCID=9107f40b
DTITLE=Robin O'Herin - Red, White and Blues
DYEAR=2002
DGENRE=Blues
TTITLE0=Hold On
TTITLE1=Corinna
TTITLE2=Walkin' Blues
TTITLE3=Junkfood Junkie Blues
TTITLE4=Old Country Rock
TTITLE5=Brian's Song
TTITLE6=Abilene
TTITLE7=The Driving Song
TTITLE8=Ever Hopeful
TTITLE9=Fly in Amber
TTITLE10=Precious Lord
EXTD=YEAR: 2002
EXTT0=
EXTT1=
EXTT2=
EXTT3=
EXTT4=
EXTT5=
EXTT6=
EXTT7=
EXTT8=
EXTT9=
EXTT10=
PLAYORDER=
